<?xml version="1.0" standalone="no"?>
<!DOCTYPE svg PUBLIC "-//W3C//DTD SVG 20010904//EN"
 "http://www.w3.org/TR/2001/REC-SVG-20010904/DTD/svg10.dtd">
<svg version="1.0" xmlns="http://www.w3.org/2000/svg"
 width="1280.000000pt" height="1280.000000pt" viewBox="0 0 1280.000000 1280.000000"
 preserveAspectRatio="xMidYMid meet">
<metadata>
Created by potrace 1.15, written by Peter Selinger 2001-2017
</metadata>
<g transform="translate(0.000000,1280.000000) scale(0.100000,-0.100000)"
fill="#000000" stroke="none">
<path d="M4923 11465 c-101 -28 -169 -74 -248 -166 -89 -105 -125 -224 -105
-352 12 -79 65 -241 115 -351 17 -39 47 -118 65 -176 21 -67 49 -129 76 -170
48 -72 106 -140 120 -140 4 0 29 -20 54 -45 26 -25 68 -54 95 -64 45 -17 47
-19 27 -30 -58 -31 -195 -63 -382 -90 -162 -24 -293 -67 -470 -156 -104 -52
-151 -69 -280 -100 -250 -60 -330 -93 -470 -190 -42 -29 -163 -97 -270 -150
-107 -54 -220 -114 -250 -135 -30 -20 -86 -53 -125 -73 -68 -34 -114 -75 -148
-129 -31 -50 -115 -320 -165 -533 -57 -241 -67 -291 -87 -470 -8 -71 -24 -213
-36 -315 -11 -102 -28 -219 -38 -260 -16 -73 -18 -76 -59 -95 -23 -11 -62 -37
-87 -58 -53 -44 -175 -226 -234 -347 -44 -93 -62 -115 -134 -174 -70 -57 -74
-116 -8 -116 45 0 150 61 194 113 61 72 80 55 31 -29 -23 -39 -30 -45 -51 -39
-36 9 -73 -18 -73 -54 0 -15 3 -31 7 -35 4 -4 6 -22 5 -41 -3 -31 0 -35 46
-58 33 -17 75 -27 128 -32 l79 -7 48 42 c26 23 47 36 47 29 0 -19 -112 -123
-162 -151 -56 -31 -82 -74 -65 -108 15 -30 50 -37 82 -16 13 9 32 16 41 16 26
0 203 109 215 132 6 12 42 62 79 112 77 104 91 129 137 246 34 88 51 161 78
340 8 58 25 132 36 165 11 33 46 164 78 290 36 140 84 299 124 407 71 190 109
325 127 453 41 296 23 268 180 277 69 3 154 13 190 21 121 29 479 147 627 208
315 129 327 132 514 137 165 4 166 4 222 -23 70 -34 157 -124 294 -300 93
-121 193 -226 270 -285 21 -17 54 -68 96 -150 35 -69 97 -181 138 -250 42 -69
79 -134 84 -145 11 -27 26 -248 28 -420 1 -77 6 -210 11 -295 l9 -155 -57
-215 c-95 -359 -107 -428 -113 -650 -6 -212 3 -357 42 -640 22 -159 24 -214
26 -610 3 -547 6 -531 -166 -820 -156 -262 -218 -402 -245 -560 -7 -39 -15
-311 -20 -695 -10 -696 -11 -717 -77 -902 -31 -91 -35 -109 -30 -170 3 -37 10
-124 16 -193 5 -69 14 -154 19 -190 6 -36 13 -104 16 -151 l6 -86 -35 -10
c-30 -10 -35 -9 -40 8 -4 10 -11 19 -17 19 -5 0 -8 -7 -4 -15 3 -8 1 -15 -4
-15 -6 0 -10 4 -10 9 0 5 -7 12 -16 15 -8 3 -12 2 -9 -4 3 -6 0 -10 -9 -10 -8
0 -16 6 -19 13 -2 6 -8 9 -12 5 -4 -4 -2 -15 6 -25 9 -11 10 -14 1 -9 -20 12
-25 -20 -6 -42 15 -19 50 -20 39 -2 -3 4 8 10 25 12 17 3 31 -1 34 -8 7 -19
-5 -24 -28 -12 l-21 11 20 -22 c11 -13 21 -18 23 -12 2 6 10 11 18 11 10 0 12
-5 8 -13 -6 -9 -4 -9 8 1 13 10 17 10 22 -5 6 -15 8 -15 17 -3 8 13 10 13 19
0 5 -8 8 -21 5 -27 -2 -7 0 -13 5 -13 5 0 7 -7 3 -16 -4 -11 -9 -12 -16 -5 -6
6 -18 11 -27 11 -11 0 -12 -2 -3 -8 7 -5 -23 -8 -67 -8 -44 1 -80 5 -80 10 0
5 -7 3 -15 -4 -8 -7 -15 -9 -15 -4 0 5 -18 9 -39 9 -22 1 -37 -3 -34 -8 3 -5
-4 -4 -14 2 -11 6 -23 7 -27 4 -3 -3 -6 -2 -6 3 0 5 -15 9 -34 9 -19 0 -32 -3
-29 -7 2 -5 0 -8 -5 -8 -6 0 -12 -7 -16 -15 -4 -13 -2 -13 14 -5 25 13 33 13
24 -2 -6 -9 -3 -9 9 1 15 12 18 10 27 -15 9 -23 13 -26 21 -14 8 11 9 7 4 -15
-5 -24 -4 -28 6 -17 20 18 42 15 35 -5 -4 -10 -4 -14 0 -11 4 4 15 3 25 -3 15
-7 17 -6 13 6 -3 8 -10 12 -15 9 -5 -3 -9 -1 -9 5 0 17 18 21 24 5 3 -8 11
-12 17 -8 7 4 9 3 5 -4 -3 -6 -1 -14 6 -19 18 -11 39 -13 33 -3 -10 16 13 20
25 4 7 -8 19 -13 27 -10 7 3 13 1 13 -5 0 -5 10 -9 23 -8 39 4 58 -1 52 -11
-5 -8 -11 -7 -21 1 -10 8 -14 8 -14 0 0 -12 10 -14 52 -11 14 1 29 -4 33 -10
3 -5 11 -8 16 -5 5 4 15 3 22 -2 6 -4 23 -9 37 -10 14 -1 48 -5 75 -8 105 -12
421 0 443 17 8 7 12 7 12 0 0 -6 7 -9 15 -6 11 4 12 10 6 18 -15 17 -1 32 47
51 57 23 74 56 61 116 -6 24 -22 58 -38 74 -15 17 -33 48 -40 70 -8 22 -40 78
-71 125 -61 89 -158 314 -190 440 -15 58 -16 77 -4 175 7 61 23 191 34 290 42
355 96 597 197 885 84 239 122 364 177 587 50 201 80 276 178 433 104 168 162
327 198 540 6 36 17 81 24 100 35 91 57 238 66 440 8 203 9 207 64 422 59 235
90 414 106 616 13 162 37 284 67 344 25 51 29 53 120 62 l52 5 0 -129 c1 -140
28 -360 63 -498 l21 -84 -26 -86 c-33 -110 -36 -139 -39 -292 -2 -203 19 -400
55 -504 17 -49 41 -101 54 -116 13 -16 23 -33 23 -39 0 -6 11 -18 25 -27 23
-15 27 -15 50 0 21 14 25 24 25 62 0 25 -6 60 -14 77 -21 48 -36 142 -36 226
0 96 11 85 46 -44 14 -55 39 -131 54 -170 16 -38 43 -119 61 -180 18 -60 47
-148 66 -195 32 -80 57 -129 167 -330 60 -109 71 -142 96 -294 28 -170 80
-373 136 -531 85 -238 174 -509 194 -586 31 -119 71 -390 81 -549 5 -80 12
-179 15 -221 10 -124 -52 -464 -113 -624 -19 -49 -37 -114 -40 -145 -2 -30
-11 -72 -20 -92 -10 -24 -14 -52 -10 -78 5 -37 3 -40 -14 -35 -11 4 -19 2 -19
-5 0 -6 -4 -9 -9 -5 -17 10 -91 13 -91 3 0 -5 -4 -6 -10 -3 -18 11 -81 15 -75
5 3 -5 2 -10 -4 -10 -5 0 -12 6 -14 13 -4 9 -8 9 -15 -2 -7 -10 -11 -10 -17
-1 -6 9 -9 9 -16 -1 -7 -11 -11 -11 -21 4 -12 16 -14 16 -25 -2 -8 -13 -9 -22
-3 -26 6 -3 10 -16 9 -28 0 -15 -5 -9 -17 20 -20 53 -42 59 -75 22 -29 -33
-13 -39 25 -9 l25 19 -16 -35 c-11 -24 -20 -33 -31 -29 -12 5 -13 4 -2 -7 11
-11 16 -9 28 7 15 20 15 20 30 0 8 -11 12 -25 10 -32 -3 -8 3 -13 15 -13 13 0
18 4 13 12 -5 8 0 9 17 4 13 -4 33 -9 44 -10 11 -2 19 -10 19 -19 -1 -13 8
-15 47 -13 27 2 46 -1 43 -5 -3 -5 2 -9 10 -9 9 0 16 3 16 8 0 4 62 8 138 9
75 0 164 4 197 7 33 4 67 7 75 7 8 0 22 3 30 6 8 3 29 7 45 9 17 1 52 8 79 14
l48 12 -28 19 c-16 10 -35 19 -41 19 -7 0 -13 4 -13 10 0 6 9 6 24 0 16 -6 29
-5 42 4 13 10 24 10 45 3 23 -9 32 -8 48 7 11 10 23 28 27 40 4 11 22 54 42
94 l35 73 -6 158 c-4 86 -14 202 -22 257 -23 153 -29 300 -16 379 10 63 9 78
-10 145 -79 281 -89 380 -94 925 -7 752 -20 820 -220 1178 -92 165 -134 269
-160 393 -9 43 -27 225 -41 404 -14 179 -27 359 -31 400 -3 42 0 150 6 241 26
361 10 728 -39 934 -26 109 -101 356 -152 495 -45 124 -46 139 -22 269 17 92
15 244 -6 441 -12 111 -10 279 6 620 5 99 2 170 -10 265 -9 72 -25 243 -36
380 -22 272 -35 350 -73 436 -61 138 -194 291 -309 356 -30 17 -135 59 -233
92 -121 41 -213 80 -286 121 -128 72 -188 98 -249 111 -62 13 -249 30 -409 38
l-134 6 -28 51 c-29 51 -50 128 -67 244 -7 55 -6 67 8 82 44 47 52 163 17 248
-24 58 -71 100 -113 100 -18 0 -29 14 -58 73 -19 40 -53 96 -76 124 -76 96
-219 187 -365 233 -92 29 -267 37 -342 15z m259 -10427 c-8 -8 -9 -4 -5 13 4
13 8 18 11 10 2 -7 -1 -18 -6 -23z m-28 -4 c3 -8 2 -12 -4 -9 -6 3 -10 10 -10
16 0 14 7 11 14 -7z m-141 -189 c-3 -9 -8 -14 -10 -11 -3 3 -2 9 2 15 9 16 15
13 8 -4z"/>
<path d="M4949 1117 c13 -17 7 -23 -21 -18 -13 2 -9 -10 12 -36 12 -16 20 -20
20 -11 0 8 -6 20 -12 27 -11 10 -10 11 5 6 16 -7 21 -18 18 -38 -1 -5 3 -6 8
-3 17 11 4 60 -20 75 -22 15 -23 15 -10 -2z"/>
<path d="M4591 1056 c-9 -10 -8 -15 4 -20 10 -4 15 1 15 14 0 24 -4 25 -19 6z"/>
<path d="M4623 1055 c0 -8 4 -12 9 -9 4 3 8 9 8 15 0 5 -4 9 -8 9 -5 0 -9 -7
-9 -15z"/>
<path d="M4768 1063 c7 -3 16 -2 19 1 4 3 -2 6 -13 5 -11 0 -14 -3 -6 -6z"/>
<path d="M4888 1058 c9 -9 15 -9 24 0 9 9 7 12 -12 12 -19 0 -21 -3 -12 -12z"/>
<path d="M7210 1061 c0 -10 19 -25 25 -20 1 2 -3 10 -11 17 -8 7 -14 8 -14 3z"/>
<path d="M4855 1050 c-3 -5 -1 -10 4 -10 6 0 11 5 11 10 0 6 -2 10 -4 10 -3 0
-8 -4 -11 -10z"/>
<path d="M4920 1045 c-11 -13 -10 -14 4 -9 9 3 16 10 16 15 0 13 -6 11 -20 -6z"/>
<path d="M7306 1043 c-6 -14 -5 -15 5 -6 7 7 10 15 7 18 -3 3 -9 -2 -12 -12z"/>
<path d="M4700 1040 c0 -5 5 -10 11 -10 5 0 7 5 4 10 -3 6 -8 10 -11 10 -2 0
-4 -4 -4 -10z"/>
<path d="M4531 1021 c-8 -5 -9 -11 -3 -15 5 -3 12 1 16 9 6 17 6 18 -13 6z"/>
<path d="M5181 971 c-8 -6 -9 -11 -3 -15 6 -3 14 -1 17 5 9 14 2 20 -14 10z"/>
<path d="M4700 951 c0 -11 4 -22 9 -25 4 -3 6 6 3 19 -5 30 -12 33 -12 6z"/>
<path d="M4737 946 c-3 -8 1 -22 8 -33 8 -10 15 -13 15 -7 0 5 -5 15 -12 22
-9 9 -8 12 5 12 9 0 17 -5 17 -11 0 -5 5 -7 10 -4 6 3 10 14 9 23 0 10 -3 12
-6 5 -3 -9 -10 -10 -23 -3 -13 7 -19 6 -23 -4z"/>
<path d="M7327 949 c7 -7 15 -10 18 -7 3 3 -2 9 -12 12 -14 6 -15 5 -6 -5z"/>
<path d="M4390 940 c0 -5 5 -10 11 -10 5 0 7 5 4 10 -3 6 -8 10 -11 10 -2 0
-4 -4 -4 -10z"/>
<path d="M4615 930 c-3 -5 -1 -10 4 -10 6 0 11 5 11 10 0 6 -2 10 -4 10 -3 0
-8 -4 -11 -10z"/>
<path d="M4676 913 c-6 -14 -5 -15 5 -6 7 7 10 15 7 18 -3 3 -9 -2 -12 -12z"/>
<path d="M4610 891 c0 -6 4 -13 10 -16 6 -3 7 1 4 9 -7 18 -14 21 -14 7z"/>
<path d="M4686 883 c-6 -14 -5 -15 5 -6 7 7 10 15 7 18 -3 3 -9 -2 -12 -12z"/>
<path d="M4795 890 c-3 -5 -13 -6 -23 -3 -13 4 -14 3 -6 -6 11 -12 44 -5 44
10 0 12 -7 11 -15 -1z"/>
<path d="M5095 781 c-3 -5 -1 -12 5 -16 5 -3 10 1 10 9 0 18 -6 21 -15 7z"/>
</g>
</svg>
